<?xml version="1.0" standalone="no"?><!DOCTYPE svg PUBLIC "-//W3C//DTD SVG 1.1//EN" "http://www.w3.org/Graphics/SVG/1.1/DTD/svg11.dtd"><svg t="1651417842248" class="icon" viewBox="0 0 1061 1024" version="1.1" xmlns="http://www.w3.org/2000/svg" p-id="2763" xmlns:xlink="http://www.w3.org/1999/xlink" width="207.2265625" height="200"><defs><style type="text/css"></style></defs><path d="M1039.418533 495.068115l0.884501-48.521225c-0.631787 0-58.75617-1.389931-121.429417-40.434353-79.731491-49.65844-128.884501-134.69694-146.069102-253.346496 22.870681-12.509378 42.9615-27.293189 59.767029-44.098716 49.279368-49.279368 54.965449-100.075025 55.218164-102.2231L839.521198 1.516288C839.142126 3.158934 820.441238 154.787759 531.082896 154.787759c-120.292201 0-213.670286-27.166831-269.899309-78.467917C219.864732 38.66535 212.78872 1.516288 212.536006 0v0.252715l-47.889438 7.581441c0.379072 2.148075 8.845015 52.438302 60.525173 101.338598 13.772952 13.014808 29.314906 24.766041 46.499507 35.127345C255.750221 266.234946 206.976282 353.92695 126.486647 404.848963c-61.788746 39.17078-120.923988 41.57157-123.451135 41.697927h-0.126357l0.505429 24.134255 0.379072 24.38697c2.779862 0 64.442251-1.516288 133.433366-40.181639l-46.246791 438.712734c-1.516288 8.845015-7.960513 55.597236 20.217176 90.977295C130.65644 1008.963475 160.72949 1021.851925 200.658414 1022.862784c35.506417 0.884501 118.90227 1.137216 214.302073 1.137216 185.998026 0 417.611056-1.010859 427.97236-1.137216 6.317868 0.126357 42.9615-0.631787 69.370187-29.693978 20.722606-22.744324 28.556762-55.218164 23.376111-96.537019-9.729516-77.583416-33.105627-335.984205-43.340573-449.705825 0.252715 0.126357 0.505429 0.252715 0.631787 0.379073 74.171767 45.994077 143.541955 47.76308 146.448174 47.76308zM653.64953 939.972359v34.748273H395.501455v-124.841066c0-70.886476 57.871668-128.505429 129.010859-128.50543S653.523172 778.99309 653.523172 849.879566v90.092793z" p-id="2764" fill="#ffffff"></path></svg>